<?xml version="1.0" encoding="UTF-8" standalone="no"?>
<svg
   xmlns:dc="http://purl.org/dc/elements/1.1/"
   xmlns:cc="http://creativecommons.org/ns#"
   xmlns:rdf="http://www.w3.org/1999/02/22-rdf-syntax-ns#"
   xmlns:svg="http://www.w3.org/2000/svg"
   xmlns="http://www.w3.org/2000/svg"
   viewBox="0 0 340.67407 324.45734"
   height="324.45734"
   width="340.67407"
   xml:space="preserve"
   id="svg2"
   version="1.1"><metadata
     id="metadata8"><rdf:RDF><cc:Work
         rdf:about=""><dc:format>image/svg+xml</dc:format><dc:type
           rdf:resource="http://purl.org/dc/dcmitype/StillImage" /><dc:title></dc:title></cc:Work></rdf:RDF></metadata><defs
     id="defs6"><clipPath
       id="clipPath66"
       clipPathUnits="userSpaceOnUse"><path
         id="path64"
         d="m 750,420.012 h 6060 v 4330 H 750 Z" /></clipPath></defs><g
     transform="matrix(1.3333333,0,0,-1.3333333,-485.37391,518.44932)"
     id="g10"><path
       d="M 592.514,185.586 H 393.157 c -4.561,0 -8.26,3.697 -8.26,8.259 v 133.523 c 0,4.561 3.699,8.259 8.26,8.259 h 199.357 c 4.561,0 8.259,-3.698 8.259,-8.259 V 193.845 c 0,-4.562 -3.698,-8.259 -8.259,-8.259"
       style="fill:#363771;fill-opacity:1;fill-rule:nonzero;stroke:none;stroke-width:0.1"
       id="path170" /><path
       d="m 395.508,196.197 v 128.82 H 590.163 V 196.197 H 395.508"
       style="fill:#ffffff;fill-opacity:1;fill-rule:nonzero;stroke:none;stroke-width:0.1"
       id="path172" /><path
       d="m 384.897,213.783 v -19.938 c 0,-4.562 3.699,-8.259 8.26,-8.259 h 199.357 c 4.561,0 8.259,3.697 8.259,8.259 v 19.938 H 384.897"
       style="fill:#363771;fill-opacity:1;fill-rule:nonzero;stroke:none;stroke-width:0.1"
       id="path174" /><path
       d="m 536.101,152.161 -14.854,14.853 h -59.376 l -14.853,-14.853 c -0.912,-0.912 -0.387,-6.667 1.488,-6.667 h 43.054 43.052 c 1.875,0 2.262,5.893 1.489,6.667"
       style="fill:#363771;fill-opacity:1;fill-rule:nonzero;stroke:none;stroke-width:0.1"
       id="path176" /><path
       d="m 521.247,167.014 -3.008,18.572 h -53.36 l -3.008,-18.572 -14.853,-14.853 c 0,0 88.368,-0.222 89.083,0 l -14.854,14.853"
       style="fill:#2c2a50;fill-opacity:1;fill-rule:nonzero;stroke:none;stroke-width:0.1"
       id="path178" /><path
       d="M 551.058,225.552 H 440.421 l -5.808,58.407 116.445,8.712 v -67.119"
       style="fill:#f0bd33;fill-opacity:1;fill-rule:nonzero;stroke:none;stroke-width:0.1"
       id="path180" /><path
       d="m 495.739,246.714 -61.126,37.245 116.445,8.712 z"
       style="fill:#f0b524;fill-opacity:1;fill-rule:nonzero;stroke:none;stroke-width:0.1"
       id="path182" /><path
       d="m 551.058,292.671 -55.867,-41.269 -60.578,32.557"
       style="fill:#edce49;fill-opacity:1;fill-rule:nonzero;stroke:none;stroke-width:0.1"
       id="path184" /><path
       d="m 539.362,236.088 h -25.761 v 1.871 h 25.761 v -1.871"
       style="fill:#ffffff;fill-opacity:1;fill-rule:nonzero;stroke:none;stroke-width:0.1"
       id="path186" /><path
       d="m 539.362,239.162 h -25.761 v 1.871 h 25.761 v -1.871"
       style="fill:#ffffff;fill-opacity:1;fill-rule:nonzero;stroke:none;stroke-width:0.1"
       id="path188" /><path
       d="m 539.362,233.014 h -25.761 v 1.871 h 25.761 v -1.871"
       style="fill:#ffffff;fill-opacity:1;fill-rule:nonzero;stroke:none;stroke-width:0.1"
       id="path190" /><path
       d="m 606.968,145.494 c 0,0 28.278,42.645 0,93.667 0,0 -45.711,-33.854 -29.271,-93.667 h 29.271"
       style="fill:#f35cb5;fill-opacity:1;fill-rule:nonzero;stroke:none;stroke-width:0.1"
       id="path192" /><path
       d="m 574.641,180.345 c 0.033,0.304 0.065,0.607 0.101,0.909 4.763,-6.738 9.939,-13.23 15.728,-18.718 1.326,10.471 3.088,21.332 5.057,31.67 l -0.023,-0.016 c -3.928,5.726 -7.571,11.715 -10.87,17.848 0.115,0.213 0.232,0.424 0.348,0.635 3.247,-6.063 6.835,-11.986 10.701,-17.657 3.434,17.883 7.477,34.104 10.943,43.883 0.22,0.172 0.342,0.262 0.342,0.262 0.079,-0.143 0.152,-0.287 0.231,-0.43 -3.44,-9.67 -7.458,-25.771 -10.881,-43.556 8.071,6.143 15.029,11.749 21.025,16.947 0.05,-0.224 0.102,-0.45 0.15,-0.675 -6.085,-5.263 -13.143,-10.941 -21.346,-17.168 -1.996,-10.466 -3.779,-21.477 -5.113,-32.081 9.066,3.096 18.188,7.273 26.779,12.207 -0.052,-0.265 -0.105,-0.529 -0.158,-0.791 -8.579,-4.89 -17.674,-9.029 -26.706,-12.09 -0.683,-5.505 -1.245,-10.893 -1.649,-16.03 h -0.609 c 0.412,5.217 0.985,10.693 1.684,16.288 -5.795,5.434 -10.972,11.87 -15.734,18.563"
       style="fill:#ffffff;fill-opacity:1;fill-rule:nonzero;stroke:none;stroke-width:0.1"
       id="path194" /><path
       d="m 567.707,145.494 c 0,0 -16.697,25.181 0,55.308 0,0 26.99,-19.99 17.283,-55.308 h -17.283"
       style="fill:#6489ce;fill-opacity:1;fill-rule:nonzero;stroke:none;stroke-width:0.1"
       id="path196" /><path
       d="m 586.795,166.072 c -0.02,0.18 -0.039,0.359 -0.061,0.538 -2.811,-3.979 -5.868,-7.813 -9.286,-11.053 -0.783,6.182 -1.823,12.596 -2.986,18.7 l 0.014,-0.01 c 2.319,3.381 4.47,6.918 6.419,10.539 -0.069,0.126 -0.138,0.25 -0.207,0.375 -1.917,-3.581 -4.036,-7.078 -6.318,-10.425 -2.028,10.558 -4.415,20.137 -6.461,25.911 -0.13,0.101 -0.202,0.155 -0.202,0.155 l -0.137,-0.255 c 2.032,-5.71 4.404,-15.217 6.425,-25.718 -4.766,3.627 -8.874,6.938 -12.414,10.007 -0.029,-0.133 -0.06,-0.266 -0.089,-0.398 3.593,-3.109 7.761,-6.461 12.604,-10.138 1.178,-6.18 2.231,-12.682 3.019,-18.942 -5.352,1.828 -10.739,4.294 -15.811,7.208 0.03,-0.158 0.061,-0.313 0.092,-0.468 5.066,-2.888 10.436,-5.331 15.769,-7.139 0.403,-3.251 0.735,-6.431 0.974,-9.465 h 0.359 c -0.243,3.08 -0.581,6.314 -0.994,9.619 3.422,3.208 6.478,7.007 9.291,10.959"
       style="fill:#ffffff;fill-opacity:1;fill-rule:nonzero;stroke:none;stroke-width:0.1"
       id="path198" /><path
       d="m 375.302,145.494 c 0,0 -25.361,38.244 0,84 0,0 40.993,-30.36 26.249,-84 h -26.249"
       style="fill:#f35cb5;fill-opacity:1;fill-rule:nonzero;stroke:none;stroke-width:0.1"
       id="path200" /><path
       d="m 404.292,176.748 c -0.029,0.273 -0.059,0.545 -0.091,0.816 -4.271,-6.043 -8.913,-11.866 -14.104,-16.786 -1.19,9.39 -2.769,19.129 -4.535,28.401 l 0.02,-0.015 c 3.522,5.135 6.79,10.507 9.749,16.007 -0.104,0.191 -0.209,0.38 -0.313,0.569 -2.912,-5.438 -6.13,-10.75 -9.596,-15.835 -3.08,16.038 -6.705,30.585 -9.814,39.354 -0.197,0.154 -0.306,0.235 -0.306,0.235 -0.072,-0.129 -0.137,-0.256 -0.208,-0.385 3.085,-8.673 6.688,-23.112 9.758,-39.061 -7.238,5.508 -13.477,10.536 -18.854,15.198 -0.045,-0.201 -0.093,-0.404 -0.136,-0.605 5.457,-4.721 11.787,-9.813 19.143,-15.398 1.79,-9.384 3.389,-19.259 4.586,-28.768 -8.13,2.775 -16.311,6.521 -24.015,10.947 0.046,-0.238 0.093,-0.475 0.141,-0.71 7.693,-4.386 15.849,-8.097 23.949,-10.843 0.613,-4.937 1.117,-9.768 1.48,-14.375 h 0.545 c -0.369,4.679 -0.882,9.589 -1.509,14.608 5.197,4.872 9.839,10.644 14.11,16.646"
       style="fill:#ffffff;fill-opacity:1;fill-rule:nonzero;stroke:none;stroke-width:0.1"
       id="path202" /><path
       d="m 420.217,145.494 c 0,0 18.477,27.866 0,61.205 0,0 -29.869,-22.122 -19.126,-61.205 h 19.126"
       style="fill:#6489ce;fill-opacity:1;fill-rule:nonzero;stroke:none;stroke-width:0.1"
       id="path204" /><path
       d="m 399.093,168.267 c 0.021,0.198 0.043,0.397 0.066,0.595 3.112,-4.404 6.494,-8.646 10.278,-12.232 0.866,6.842 2.017,13.939 3.304,20.694 l -0.015,-0.01 c -2.567,3.741 -4.948,7.655 -7.103,11.663 0.075,0.138 0.151,0.276 0.228,0.415 2.121,-3.963 4.466,-7.833 6.992,-11.538 2.244,11.684 4.886,22.285 7.15,28.674 0.144,0.112 0.224,0.171 0.224,0.171 0.052,-0.093 0.099,-0.187 0.151,-0.281 -2.248,-6.318 -4.874,-16.84 -7.11,-28.461 5.273,4.014 9.82,7.678 13.738,11.074 0.032,-0.146 0.067,-0.294 0.099,-0.441 -3.977,-3.439 -8.589,-7.149 -13.949,-11.219 -1.304,-6.838 -2.469,-14.033 -3.341,-20.962 5.924,2.023 11.884,4.752 17.498,7.977 -0.033,-0.173 -0.068,-0.346 -0.103,-0.517 -5.605,-3.196 -11.549,-5.9 -17.45,-7.901 -0.447,-3.597 -0.813,-7.117 -1.078,-10.474 h -0.398 c 0.269,3.41 0.644,6.988 1.101,10.644 -3.787,3.55 -7.17,7.756 -10.282,12.129"
       style="fill:#ffffff;fill-opacity:1;fill-rule:nonzero;stroke:none;stroke-width:0.1"
       id="path206" /><path
       d="m 465.028,350.671 c -0.618,1.985 -2.299,3.498 -4.383,3.872 -0.603,4.937 -4.803,8.764 -9.903,8.764 -1.007,0 -1.976,-0.152 -2.892,-0.429 -1.537,7.951 -8.527,13.959 -16.927,13.959 -8.457,0 -15.48,-6.092 -16.951,-14.124 -0.402,0.044 -0.809,0.07 -1.222,0.07 -4.37,0 -8.138,-2.542 -9.933,-6.222 -0.545,0.149 -1.116,0.235 -1.708,0.235 -2.625,0 -4.879,-1.563 -5.896,-3.807 l -0.23,0.022 c -1.366,0 -2.482,-1.022 -2.656,-2.34 h 72.701"
       style="fill:#dde7f7;fill-opacity:1;fill-rule:nonzero;stroke:none;stroke-width:0.1"
       id="path208" /><path
       d="m 573.048,351.395 c -0.234,1.043 -1.07,1.854 -2.13,2.044 -0.285,2.34 -2.275,4.154 -4.692,4.154 -0.477,0 -0.937,-0.073 -1.371,-0.204 -0.728,3.768 -4.04,6.615 -8.02,6.615 -4.008,0 -7.336,-2.887 -8.033,-6.693 -0.191,0.021 -0.383,0.033 -0.578,0.033 -2.55,0 -4.672,-1.821 -5.142,-4.232 l -0.227,0.022 c -1.011,0 -1.837,-0.76 -1.961,-1.739 h 32.154"
       style="fill:#dde7f7;fill-opacity:1;fill-rule:nonzero;stroke:none;stroke-width:0.1"
       id="path210" /><path
       d="m 517.288,372.421 c -0.305,1.357 -1.394,2.413 -2.773,2.661 -0.372,3.046 -2.963,5.407 -6.11,5.407 -0.621,0 -1.219,-0.093 -1.784,-0.264 -0.948,4.906 -5.261,8.612 -10.443,8.612 -5.219,0 -9.552,-3.759 -10.459,-8.715 -0.248,0.028 -0.499,0.044 -0.754,0.044 -3.319,0 -6.082,-2.371 -6.694,-5.511 -0.098,0.011 -0.194,0.03 -0.294,0.03 -1.319,0 -2.395,-0.99 -2.555,-2.264 h 41.866"
       style="fill:#dde7f7;fill-opacity:1;fill-rule:nonzero;stroke:none;stroke-width:0.1"
       id="path212" /><path
       d="m 514.298,339.292 c -5.183,11.853 -18.993,17.26 -30.847,12.077 -11.853,-5.183 -17.261,-18.993 -12.078,-30.846 1.214,-2.775 2.914,-5.18 4.937,-7.195 -0.818,-1.961 -2.278,-6.574 -2.278,-6.574 0,0 4.198,2.562 6.013,3.541 6.388,-4.157 14.67,-5.132 22.175,-1.85 11.853,5.183 17.26,18.993 12.078,30.847"
       style="fill:#6489ce;fill-opacity:1;fill-rule:nonzero;stroke:none;stroke-width:0.1"
       id="path214" /><g
       id="g216"><text
         transform="matrix(1,0,0,-1,476.785,320.378)"
         style="font-variant:normal;font-weight:normal;font-size:27.25959969px;font-family:AbrilFatface;-inkscape-font-specification:AbrilFatface-Regular;writing-mode:lr-tb;fill:#ffffff;fill-opacity:1;fill-rule:nonzero;stroke:none"
         id="text220"><tspan
           x="0 16.791914 25.432524"
           y="0"
           id="tspan218">hi!</tspan></text>
</g></g></svg>